#!OML:ASF F:\VICON\USERDATA\INSTALL\rory3\rory3.ASF
:FULLY-SPECIFIED
:DEGREES
3005
root -7.0473 18.2322 -3.87004 -372.149 -83.179 368.871
lowerback 8.38323 3.66559 -0.75237
upperback 1.47314 4.71971 -1.2461
thorax -3.11577 2.33008 -1.3789
lowerneck -8.72786 4.91768 -1.83686
upperneck -1.65864 6.66853 -0.818255
head 0.896756 3.29889 0.269276
rclavicle -4.82053e-015 -1.31198e-014
rhumerus 82.5282 -19.0131 -49.4221
rradius 44.1877
rwrist -34.9207
rhand -30.9933 -3.37783
rfingers 7.12502
rthumb -4.2767 -33.3146
lclavicle -4.82053e-015 -1.31198e-014
lhumerus 69.1424 23.7464 39.8704
lradius 48.2869
lwrist 47.2856
lhand -18.2433 22.4523
lfingers 7.12502
lthumb 8.03555 52.2796
rfemur -7.04492 9.35013 19.036
rtibia 45.3269
rfoot -19.753 4.91357
rtoes -6.73972
lfemur -23.8839 0.325747 -19.1949
ltibia 55.7979
lfoot -2.60512 -10.2188
ltoes -8.69198
3006
root -7.05919 18.2282 -3.89706 -372.705 -83.0433 369.4
lowerback 8.34744 3.72402 -0.870582
upperback 1.39849 4.78817 -1.24661
thorax -3.18187 2.36554 -1.32236
lowerneck -8.64626 4.87476 -1.97446
upperneck -1.64564 6.62226 -0.667674
head 0.877694 3.27975 0.333841
rclavicle -3.90115e-015 8.74653e-015
rhumerus 82.6289 -18.7964 -49.9439
rradius 43.9649
rwrist -34.817
rhand -30.8214 -3.27616
rfingers 7.12502
rthumb -4.11072 -33.2162
lclavicle -3.90115e-015 8.74653e-015
lhumerus 69.1003 23.7059 39.9011
lradius 48.3022
lwrist 47.2577
lhand -18.3292 22.4277
lfingers 7.12502
lthumb 7.95262 52.2581
rfemur -6.8407 9.12683 19.1935
rtibia 45.1716
rfoot -20.0676 4.30918
rtoes -6.03381
lfemur -24.0096 0.930798 -19.2802
ltibia 56.0861
lfoot -3.27369 -9.3414
ltoes -10.4656
3007
root -7.07342 18.2279 -3.9216 -373.965 -82.9588 370.674
lowerback 8.22974 3.88306 -1.00065
upperback 1.39681 4.98359 -1.40411
thorax -3.11265 2.46329 -1.42474
lowerneck -9.01067 4.74645 -1.67475
upperneck -1.45102 6.43129 -0.581286
head 1.01046 3.18185 0.320654
rclavicle -6.97486e-014 1.82882e-014
rhumerus 82.5857 -18.9056 -50.4261
rradius 43.7701
rwrist -34.5152
rhand -30.7185 -3.63182
rfingers 7.12502
rthumb -4.01133 -33.5738
lclavicle -6.97486e-014 1.82882e-014
lhumerus 69.4173 23.5569 39.9991
lradius 48.3602
lwrist 47.2903
lhand -18.3358 22.6274
lfingers 7.12502
lthumb 7.9462 52.458
rfemur -6.65418 9.17629 19.2875
rtibia 45.0288
rfoot -20.3233 3.73847
rtoes -5.62172
lfemur -24.1272 1.59023 -19.483
ltibia 56.3118
lfoot -3.98344 -8.42145
ltoes -12.3257
3008
root -7.08688 18.2252 -3.94171 -375.144 -82.845 371.873
lowerback 8.10555 3.86163 -1.16614
upperback 1.32894 4.94346 -1.41881
thorax -3.12729 2.4456 -1.3381
lowerneck -8.95748 4.71726 -1.91597
upperneck -1.51831 6.41079 -0.364167
head 0.965229 3.17728 0.422809
rclavicle 3.86885e-014 -9.54166e-015
rhumerus 82.5137 -18.5187 -50.5311
rradius 43.7372
rwrist -34.5748
rhand -31.13 -3.84085
rfingers 7.12502
rthumb -4.40865 -33.775
lclavicle 3.86885e-014 -9.54166e-015
lhumerus 69.231 23.6529 39.947
lradius 48.2622
lwrist 47.1815
lhand -18.0784 22.5623
lfingers 7.12502
lthumb 8.19467 52.3834
rfemur -6.48249 9.19608 19.3458
rtibia 44.891
rfoot -20.5859 3.14712
rtoes -5.68906
lfemur -24.2073 2.25463 -19.7298
ltibia 56.5063
lfoot -4.78955 -7.5506
ltoes -14.6309
3009
root -7.10148 18.2294 -3.95931 -375.688 -82.7241 372.369
lowerback 8.07082 3.86849 -1.17846
upperback 1.33155 4.94868 -1.50343
thorax -3.09876 2.44785 -1.41599
lowerneck -9.23855 4.67552 -1.91174
upperneck -1.42253 6.35887 -0.273594
head 1.0418 3.15104 0.458764
rclavicle -2.55935e-015 -5.1684e-015
rhumerus 82.361 -18.3802 -50.6122
rradius 43.703
rwrist -34.6856
rhand -31.2324 -3.68869
rfingers 7.12502
rthumb -4.50751 -33.6207
lclavicle -2.55935e-015 -5.1684e-015
lhumerus 69.4395 23.716 40.095
lradius 47.9895
lwrist 46.9328
lhand -17.655 21.9764
lfingers 7.12502
lthumb 8.60328 51.7811
rfemur -6.24347 9.26668 19.5019
rtibia 44.7342
rfoot -20.7858 2.49651
rtoes -5.62129
lfemur -24.155 2.86794 -19.8796
ltibia 56.6594
lfoot -5.5454 -6.61127
ltoes -16.1297
3010
root -7.11489 18.2411 -3.97711 -374.908 -82.6592 371.574
lowerback 8.0257 3.8006 -1.07912
upperback 1.22314 4.87324 -1.41517
thorax -3.18636 2.41097 -1.37404
lowerneck -9.12624 4.75674 -2.21191
upperneck -1.32451 6.4964 -0.170113
head 1.03956 3.22291 0.542878
rclavicle 4.06142e-014 1.27222e-014
rhumerus 82.2106 -17.9431 -50.4664
rradius 43.6268
rwrist -34.6535
rhand -30.9768 -3.64763
rfingers 7.12502
rthumb -4.2607 -33.5848
lclavicle 4.06142e-014 1.27222e-014
lhumerus 69.1987 23.8465 40.0865
lradius 47.7111
lwrist 46.8516
lhand -17.404 21.7273
lfingers 7.12502
lthumb 8.84552 51.5219
rfemur -6.04319 9.45847 19.8549
rtibia 44.5399
rfoot -20.9162 1.86505
rtoes -5.23731
lfemur -24.1761 3.44785 -19.8157
ltibia 56.794
lfoot -6.11602 -5.56137
ltoes -16.5959
